<?xml version="1.0" encoding="UTF-8"?>
<svg version="1.1" xmlns="http://www.w3.org/2000/svg" width="301" height="299">
<path d="M0 0 C99.33 0 198.66 0 301 0 C301 98.67 301 197.34 301 299 C201.67 299 102.34 299 0 299 C0 200.33 0 101.66 0 0 Z " fill="#FEFEFE" transform="translate(0,0)"/>
<path d="M0 0 C1.01346497 -0.00525696 2.02692993 -0.01051392 3.07110596 -0.01593018 C6.42475759 -0.0291442 9.77793523 -0.0203849 13.1315918 -0.01025391 C15.46323233 -0.0122747 17.79487225 -0.01518619 20.12651062 -0.01895142 C25.01653045 -0.02337707 29.90638598 -0.01693753 34.79638672 -0.00292969 C41.05763797 0.01413371 47.31850262 0.00434032 53.57973957 -0.01364708 C58.39679358 -0.02450254 63.21375642 -0.02102994 68.03081322 -0.0132637 C70.33883904 -0.0112651 72.6468732 -0.013709 74.9548893 -0.02070236 C78.18629396 -0.02834243 81.41707884 -0.01667493 84.6484375 0 C86.07400215 -0.00910904 86.07400215 -0.00910904 87.52836609 -0.0184021 C93.10900507 0.03480174 97.11179809 0.64682603 102.01831055 3.38818359 C104.91929713 7.73966347 104.86194399 11.28285177 104.01831055 16.38818359 C102.25234576 20.65415433 99.89261555 24.47496144 97.45581055 28.38818359 C96.42222945 30.11081875 95.38868125 31.83347479 94.35720825 33.55737305 C93.28963196 35.33571545 92.21300878 37.10833126 91.13500977 38.88037109 C87.83328976 44.32703429 84.68454195 49.8620908 81.51831055 55.38818359 C80.28206196 57.53313608 79.04507872 59.67766531 77.80737305 61.82177734 C76.88166504 63.42641846 76.88166504 63.42641846 75.93725586 65.06347656 C74.27566141 67.94230521 72.61306164 70.82054781 70.94976807 73.69839478 C69.92485652 75.47180967 68.90024932 77.24540006 67.87573242 79.01904297 C66.59378317 81.23814133 65.31126948 83.45691375 64.02807617 85.67529297 C62.87985103 87.66343529 61.73465534 89.65333143 60.59301758 91.64526367 C59.57193522 93.42384667 58.5421635 95.19748022 57.50219727 96.96508789 C57.0486084 97.74924072 56.59501953 98.53339355 56.12768555 99.34130859 C55.73291016 100.01452148 55.33813477 100.68773437 54.93139648 101.38134766 C53.31882237 104.92556134 52.9108101 108.6552556 54.01831055 112.38818359 C56.69167573 116.86201113 56.69167573 116.86201113 61.23427773 118.94886398 C64.06549741 119.16862334 66.84390034 119.1954723 69.68359375 119.16113281 C70.75721664 119.17176254 71.83083954 119.18239227 72.93699646 119.19334412 C76.48150344 119.22142239 80.02452421 119.20732749 83.5690918 119.19287109 C86.02818606 119.20411935 88.48726958 119.21799916 90.94633484 119.23440552 C97.41550627 119.27049165 103.88420556 119.27081075 110.35345459 119.26373291 C116.95601892 119.26282102 123.55840534 119.29566407 130.16088867 119.32568359 C143.11340192 119.37959127 156.0656958 119.39686838 169.01831055 119.38818359 C169.01831055 118.72818359 169.01831055 118.06818359 169.01831055 117.38818359 C170.66833883 116.03431424 172.33574925 114.70140217 174.01831055 113.38818359 C175.80036482 109.82407505 175.61649884 106.2250624 175.01831055 102.38818359 C173.38809045 98.49594978 171.20002814 95.01640705 168.95581055 91.45068359 C167.660429 89.31463803 166.36619673 87.17789516 165.07299805 85.04052734 C164.40107422 83.94337402 163.72915039 82.8462207 163.03686523 81.71582031 C159.79276516 76.36784207 156.69036702 70.94011566 153.58081055 65.51318359 C152.3339482 63.34751178 151.0865483 61.18214936 149.83862305 59.01708984 C149.21503906 57.93443848 148.59145508 56.85178711 147.94897461 55.73632812 C145.95203938 52.27325658 143.95057813 48.81283577 141.94799805 45.35302734 C141.27274283 44.18557211 140.59753082 43.01809188 139.92236328 41.85058594 C138.65466823 39.65891352 137.38602286 37.46779037 136.11621094 35.27734375 C134.40677715 32.3199592 132.70994876 29.35577755 131.01831055 26.38818359 C130.44306641 25.39012695 129.86782227 24.39207031 129.27514648 23.36376953 C128.45771973 21.91599121 128.45771973 21.91599121 127.6237793 20.43896484 C127.13675537 19.58343018 126.64973145 18.72789551 126.14794922 17.84643555 C124.38556769 14.01124652 124.03032277 10.48833287 125.01831055 6.38818359 C126.81224723 3.51788491 128.00094331 1.89686721 131.01831055 0.38818359 C132.44898552 0.28587574 133.88425012 0.24444153 135.31854248 0.23428345 C136.22134949 0.22568298 137.12415649 0.21708252 138.05432129 0.20822144 C139.04758423 0.20396149 140.04084717 0.19970154 141.06420898 0.1953125 C142.63026886 0.18304626 142.63026886 0.18304626 144.22796631 0.17053223 C147.6945335 0.1456521 151.16105966 0.12915537 154.62768555 0.11474609 C155.80987923 0.10942242 156.99207291 0.10409874 158.21009064 0.09861374 C164.46744641 0.07187065 170.72478216 0.05249952 176.98217773 0.03808594 C183.44994993 0.02143631 189.91721277 -0.02334155 196.38479233 -0.07428551 C201.3536234 -0.10792025 206.32233303 -0.11948744 211.2912674 -0.12514114 C213.67551821 -0.13186411 216.05976075 -0.14711307 218.44390106 -0.17103195 C221.78130239 -0.20260358 225.1173229 -0.20273161 228.45483398 -0.1953125 C229.44 -0.21171783 230.42516602 -0.22812317 231.44018555 -0.24502563 C235.9292806 -0.20417342 239.04032256 -0.08417469 242.61602783 2.7996521 C245.76834035 6.19636314 246.50309442 8.28630976 246.42944336 12.96630859 C245.55509902 18.11684059 242.52751513 22.45576084 239.89331055 26.88818359 C239.26166992 27.98187256 238.6300293 29.07556152 237.97924805 30.20239258 C236.00810437 33.60716195 234.01413931 36.99783978 232.01831055 40.38818359 C230.8317922 42.43021045 229.64683665 44.47314635 228.46362305 46.51708984 C225.57898569 51.4914468 222.67496687 56.45414937 219.76391602 61.41308594 C216.86209297 66.35876644 213.97090802 71.31064436 211.08081055 76.26318359 C210.21842773 77.74057007 210.21842773 77.74057007 209.33862305 79.24780273 C204.4051319 87.70766874 199.51219756 96.19065066 194.62402344 104.67675781 C189.87416522 112.9178755 185.08736013 121.1368527 180.2878418 129.34912109 C176.00608933 136.68102083 171.75620116 144.03085597 167.51831055 151.38818359 C162.14570662 160.71546711 156.74372058 170.02482643 151.30541992 179.31396484 C148.18147232 184.6561629 145.08384942 190.01226621 142.01831055 195.38818359 C141.34391964 196.56792155 140.66944105 197.74760939 139.99487305 198.92724609 C138.71432517 201.16947024 137.43800856 203.41411833 136.16674805 205.66162109 C126.39022534 222.75976874 126.39022534 222.75976874 120.01831055 225.38818359 C117.08081055 225.85693359 117.08081055 225.85693359 114.01831055 225.88818359 C112.50237305 225.93458984 112.50237305 225.93458984 110.95581055 225.98193359 C105.93066846 224.96621338 103.80665301 221.56207723 101.0534668 217.46240234 C100.40249023 216.34478516 99.75151367 215.22716797 99.08081055 214.07568359 C98.7044043 213.43453613 98.32799805 212.79338867 97.94018555 212.1328125 C96.62543974 209.88887531 95.32216491 207.63846506 94.01831055 205.38818359 C92.98644735 203.62085412 91.95385754 201.85394874 90.9206543 200.08740234 C88.57423855 196.07277531 86.23245659 192.05548791 83.89331055 188.03662109 C79.78295144 180.97853525 75.65147463 173.93292699 71.51831055 166.88818359 C65.7737841 157.09555916 60.04335087 147.29489251 54.3269043 137.48583984 C49.73673083 129.61248991 45.12949647 121.74923614 40.51831055 113.88818359 C34.7740122 104.09542487 29.04335137 94.29489337 23.3269043 84.48583984 C18.02191406 75.3863919 12.69447368 66.30017659 7.36328125 57.21606445 C3.88713378 51.29143765 0.41845057 45.36270349 -3.0324707 39.42333984 C-3.66797852 38.33021484 -4.30348633 37.23708984 -4.95825195 36.11083984 C-6.14610004 34.06622473 -7.33240228 32.02071041 -8.5168457 29.97412109 C-11.76795259 24.37571211 -11.76795259 24.37571211 -15.34106445 18.98193359 C-17.8339556 15.0407914 -17.49218076 12.98260536 -16.98168945 8.38818359 C-13.32359859 0.15747915 -8.18327917 -0.05195733 0 0 Z " fill="#E9564E" transform="translate(33.981689453125,50.61181640625)"/>
<path d="M0 0 C0.5775 0.226875 1.155 0.45375 1.75 0.6875 C0.6671875 1.30625 0.6671875 1.30625 -0.4375 1.9375 C-3.22969862 3.67486803 -5.72012585 5.59131857 -8.25 7.6875 C-6.86345583 3.41232214 -5.12511737 -0.71182186 0 0 Z " fill="#EC7670" transform="translate(167.25,51.3125)"/>
</svg>
