<?xml version="1.0" encoding="UTF-8"?>
<svg version="1.1" xmlns="http://www.w3.org/2000/svg" width="693" height="442">
<path d="M0 0 C228.69 0 457.38 0 693 0 C693 145.86 693 291.72 693 442 C464.31 442 235.62 442 0 442 C0 296.14 0 150.28 0 0 Z " fill="#FEFEFE" transform="translate(0,0)"/>
<path d="M0 0 C0.88031387 -0.00997513 1.76062775 -0.01995026 2.6676178 -0.03022766 C3.62563797 -0.03089233 4.58365814 -0.03155701 5.57070923 -0.03224182 C7.09331612 -0.0447271 7.09331612 -0.0447271 8.64668274 -0.0574646 C12.00502346 -0.08157643 15.36317002 -0.09033798 18.72158813 -0.09693909 C21.05562397 -0.10590406 23.38965921 -0.11502588 25.72369385 -0.1242981 C30.61786293 -0.14079356 35.51196355 -0.14848932 40.40615845 -0.15138245 C46.67661773 -0.15676865 52.94643355 -0.194457 59.21671104 -0.24012661 C64.03800811 -0.26987132 68.85914969 -0.27710544 73.68053055 -0.2781086 C75.99220351 -0.28231552 78.30387675 -0.29476859 80.61545944 -0.31562614 C83.84972196 -0.34248731 87.0824858 -0.33773001 90.31680298 -0.32521057 C91.27077469 -0.34004486 92.2247464 -0.35487915 93.20762634 -0.37016296 C97.6300378 -0.32142583 100.63388514 -0.15128427 104.15167236 2.68661499 C107.67257387 6.44897472 107.97402978 8.74892339 107.90811157 13.75071716 C107.30294708 18.3097406 105.02802748 21.87789616 102.69815063 25.77415466 C102.19855835 26.64435242 101.69896606 27.51455017 101.18423462 28.41111755 C99.66644154 31.04392601 98.12300925 33.66012368 96.57315063 36.27415466 C95.72720428 37.72024648 94.88209338 39.1668275 94.03799438 40.61399841 C92.41871336 43.38151479 90.78800939 46.14192949 89.15127563 48.89915466 C86.3449747 53.64098419 83.61267439 58.42391222 80.88565063 63.21165466 C76.42868968 71.03213745 71.9553242 78.84297344 67.46069336 86.64186096 C66.4639973 88.37165236 65.46839417 90.10207335 64.47280884 91.83250427 C63.86396851 92.88832703 63.25512817 93.94414978 62.62783813 95.03196716 C62.08627075 95.97185486 61.54470337 96.91174255 60.98672485 97.88011169 C59.90486239 99.71236443 58.7534474 101.50370951 57.57315063 103.27415466 C57.25714875 105.42206395 57.25714875 105.42206395 57.32315063 107.71165466 C57.31799438 108.4734906 57.31283813 109.23532654 57.30752563 110.02024841 C57.60649044 112.55705275 58.20327931 114.12345668 59.57315063 116.27415466 C62.72098868 118.37271336 63.45004837 118.52558 67.03833008 118.53485107 C67.95237106 118.54193588 68.86641205 118.54902069 69.80815125 118.55632019 C70.80874069 118.55384277 71.80933014 118.55136536 72.84024048 118.54881287 C74.42355919 118.55647926 74.42355919 118.55647926 76.03886414 118.56430054 C79.5373294 118.57823037 83.03559839 118.57723707 86.53408813 118.57493591 C88.96162998 118.57882123 91.38917115 118.58315555 93.81671143 118.58792114 C98.90937502 118.59539084 104.00196929 118.59508681 109.09463501 118.58982849 C115.62400844 118.58403562 122.15309805 118.60095709 128.68242455 118.62417316 C133.69754702 118.63889905 138.71260098 118.6397837 143.72774124 118.63666344 C146.13511339 118.63717731 148.54248931 118.64242743 150.94984055 118.65247536 C154.31583888 118.66479871 157.68128241 118.65807206 161.04727173 118.64646912 C162.04381271 118.65411285 163.0403537 118.66175659 164.0670929 118.66963196 C169.03853859 118.63171524 172.56350628 118.57120017 176.57315063 115.27415466 C178.8037682 112.40621779 179.03981396 109.28341037 178.99575806 105.69871521 C178.07822605 100.43469998 174.82885302 96.01359509 172.07315063 91.52415466 C171.04307092 89.79523752 170.01303371 88.0662937 168.98524475 86.33601379 C167.90862584 84.52712612 166.82517118 82.72244358 165.74160767 80.91770935 C162.57908486 75.62851325 159.54682714 70.26541413 156.50714111 64.90504456 C150.47782675 54.2809469 144.35911638 43.70962943 138.17642212 33.17405701 C136.63524662 30.54462289 135.10337765 27.9099707 133.57315063 25.27415466 C133.08459595 24.44730164 132.59604126 23.62044861 132.09268188 22.76853943 C131.63893188 21.98406433 131.18518188 21.19958923 130.71768188 20.39134216 C130.31783081 19.70797791 129.91797974 19.02461365 129.50601196 18.32054138 C127.84386959 14.67435521 127.64231854 11.1501977 128.57315063 7.27415466 C130.31762393 4.21491288 132.37282415 1.8743179 135.57315063 0.27415466 C136.96594368 0.17622206 138.36326973 0.13914425 139.75949097 0.13371277 C140.63705551 0.12800262 141.51462006 0.12229248 142.41877747 0.1164093 C143.38398819 0.11529144 144.34919891 0.11417358 145.34365845 0.11302185 C146.35843765 0.10805695 147.37321686 0.10309204 148.41874695 0.09797668 C151.78792999 0.0833291 155.15706593 0.0765482 158.52627563 0.07102966 C160.86316937 0.06527968 163.20006309 0.05952193 165.53695679 0.05375671 C170.44306661 0.04323888 175.34916002 0.03740155 180.25527954 0.03392029 C186.54131024 0.02843855 192.827124 0.00442047 199.1130867 -0.02405167 C203.94294874 -0.04267917 208.77275858 -0.04788375 213.6026535 -0.04941559 C215.91989069 -0.05244315 218.23712693 -0.06047511 220.55432892 -0.07360077 C223.79807496 -0.09066075 227.04129195 -0.08878072 230.2850647 -0.08229065 C231.7207354 -0.09611282 231.7207354 -0.09611282 233.18540955 -0.11021423 C238.40199186 -0.07752914 242.07218325 0.33009985 246.57315063 3.27415466 C248.88099447 6.04356726 249.51460311 7.90091422 250.07315063 11.46165466 C248.9017378 20.39367749 242.71924511 28.6276107 238.19815063 36.27415466 C236.94887542 38.40141991 235.70019789 40.52903624 234.45205688 42.65696716 C233.81155396 43.7478363 233.17105103 44.83870544 232.51113892 45.96263123 C229.36172823 51.34416392 226.24801428 56.74613714 223.13565063 62.14915466 C222.5174646 63.2215741 221.89927856 64.29399353 221.26235962 65.39891052 C218.71159585 69.82466246 216.16218621 74.25119327 213.6131897 78.67796326 C200.62523353 101.23141714 200.62523353 101.23141714 194.33828735 111.88597107 C185.19045163 127.38906659 176.16465152 142.96301651 167.17984009 158.5610199 C162.43702496 166.78995441 157.66186602 174.99949099 152.86245728 183.19554138 C149.72400201 188.56164614 146.61436762 193.94263131 143.53799438 199.34446716 C142.52414067 201.11982368 141.5099584 202.89499223 140.49575806 204.67015076 C139.53744804 206.35212139 138.58547908 208.03769991 137.63369751 209.72337341 C129.22946625 224.43307938 129.22946625 224.43307938 123.57315063 226.27415466 C118.7958599 226.95212002 114.75178547 226.79547392 110.32315063 224.83665466 C103.69583778 218.66120405 99.61586862 209.99339927 95.26065063 202.14915466 C91.32220727 195.11717235 87.34309204 188.13186477 83.15444946 181.24583435 C79.4860297 175.18759384 75.97328355 169.04154731 72.44815063 162.89915466 C67.43749109 154.17400996 62.34131071 145.50930818 57.13565063 136.89915466 C51.46316879 127.51231804 45.97464454 118.03232797 40.56317139 108.49394226 C35.25989526 99.15223571 29.79238457 89.92030457 24.23086548 80.72972107 C19.43100004 72.77041851 14.79016077 64.72931338 10.19815063 56.64915466 C4.77829877 47.11243898 -0.71176554 37.63716434 -6.42684937 28.27415466 C-7.59588237 26.35893038 -8.7627844 24.44240256 -9.92684937 22.52415466 C-10.39091187 21.76618591 -10.85497437 21.00821716 -11.33309937 20.22727966 C-13.59143461 16.19453815 -13.89021632 12.83059642 -13.42684937 8.27415466 C-10.33112515 2.82568004 -6.21184229 0.03786999 0 0 Z " fill="#E9564E" transform="translate(227.42684936523438,54.72584533691406)"/>
<path d="M0 0 C9.19875 -0.061875 18.3975 -0.12375 27.875 -0.1875 C30.75976074 -0.21481201 33.64452148 -0.24212402 36.61669922 -0.27026367 C38.92935773 -0.27903392 41.24202092 -0.28667658 43.5546875 -0.29296875 C44.73426025 -0.30831665 45.91383301 -0.32366455 47.12915039 -0.33947754 C54.99034435 -0.34194289 63.51556435 -0.31021386 69.5 5.375 C73.30709621 12.03741837 74.27137056 18.58674253 72.5 26.12890625 C70.92577062 30.27020286 68.72778178 32.69232557 65 35 C63.3420691 35.37437149 61.67547508 35.71421662 60 36 C61.80733842 39.54592352 63.6222555 43.0878487 65.44433594 46.6262207 C66.06330392 47.8308701 66.68017785 49.03659782 67.29492188 50.2434082 C68.1780967 51.97628267 69.06940215 53.70500577 69.9609375 55.43359375 C70.49509277 56.47572021 71.02924805 57.51784668 71.57958984 58.59155273 C72.77250098 61.11260047 72.77250098 61.11260047 75 62 C75.27335678 61.26353745 75.54671356 60.52707489 75.82835388 59.76829529 C76.9326299 57.15917805 78.15665151 55.04304954 79.74633789 52.70727539 C80.29773941 51.89194839 80.84914093 51.0766214 81.41725159 50.23658752 C82.01303513 49.3657402 82.60881866 48.49489288 83.22265625 47.59765625 C83.8421666 46.68350449 84.46167694 45.76935272 85.09996033 44.82749939 C87.08302718 41.90278499 89.0724102 38.9824392 91.0625 36.0625 C93.02147101 33.18146119 94.97904939 30.29949168 96.93476868 27.41624451 C98.20344354 25.5468863 99.47440733 23.67907934 100.74772644 21.81288147 C103.49503464 17.77259937 106.20312138 13.72747128 108.74536133 9.55444336 C109.34996437 8.56902809 109.34996437 8.56902809 109.96678162 7.56370544 C110.9973938 5.86471642 112.00634374 4.15263692 113.01318359 2.43945312 C115.43484176 -0.53390746 116.77796552 -1.1333591 120.5625 -1.5625 C123.84946852 -1.08440061 125.46570909 -0.54370127 127.80200195 1.83374023 C128.35847412 2.65044189 128.91494629 3.46714355 129.48828125 4.30859375 C130.17108154 5.30093018 130.85388184 6.2932666 131.55737305 7.31567383 C132.37316814 8.54272952 133.18721792 9.77094646 134 11 C134.73097397 12.09397598 134.73097397 12.09397598 135.47671509 13.21005249 C139.56173622 19.32513153 143.59640125 25.47266441 147.625 31.625 C149.4348726 34.38336198 151.24550137 37.14122637 153.0562439 39.89901733 C154.17446449 41.60268837 155.29204508 43.30677974 156.40884399 45.01138306 C159.91334899 50.35834894 163.44613868 55.68571203 167 61 C166.99792542 60.37157196 166.99585083 59.74314392 166.99371338 59.09567261 C167.03944635 55.68499782 167.1829628 52.99464159 169.39941406 50.29638672 C171.40326285 48.69898401 173.46069377 47.30999247 175.625 45.9375 C176.41463135 45.40294189 177.2042627 44.86838379 178.01782227 44.31762695 C179.74075435 43.15206998 181.47136994 41.99781049 183.20849609 40.85351562 C187.16830302 38.22426478 191.05769952 35.49775007 194.95263672 32.77368164 C197.80418117 30.78067924 200.66517804 28.80192211 203.52734375 26.82421875 C209.06771457 22.95268197 214.53372739 18.97547099 220 15 C202.84 14.67 185.68 14.34 168 14 C168 9.38 168 4.76 168 0 C195.39 0 222.78 0 251 0 C251 12 251 12 249.20605469 14.60888672 C247.95163574 15.38643311 247.95163574 15.38643311 246.671875 16.1796875 C245.73617676 16.79150879 244.80047852 17.40333008 243.83642578 18.03369141 C242.81790527 18.64132324 241.79938477 19.24895508 240.75 19.875 C238.63735515 21.23334021 236.5253887 22.59273607 234.4140625 23.953125 C232.8057959 24.95956055 232.8057959 24.95956055 231.16503906 25.98632812 C226.36935491 29.03745454 221.75353473 32.32816845 217.125 35.625 C215.56662318 36.72351225 214.00679074 37.81996324 212.4453125 38.9140625 C211.80094238 39.3673291 211.15657227 39.8205957 210.49267578 40.28759766 C206.68999122 42.89994139 202.83869716 45.44086856 199 48 C216.16 48.33 233.32 48.66 251 49 C251 53.62 251 58.24 251 63 C237.87453697 63.37139493 224.7503308 63.655336 211.62067604 63.82899475 C205.52305658 63.9123654 199.42904088 64.02533122 193.33349609 64.20703125 C187.44575293 64.38143015 181.56146432 64.47664847 175.67133713 64.51803589 C173.42943278 64.54750845 171.18770944 64.60507428 168.9472847 64.69168091 C151.83459271 65.32663066 151.83459271 65.32663066 147.09114075 61.43321037 C143.85831992 57.63913405 141.73447249 53.45216379 139.81884098 48.87658596 C138.74453509 46.41453606 137.34223549 44.24798412 135.828125 42.03515625 C135.39411377 41.36492432 134.96010254 40.69469238 134.51293945 40.00415039 C134.09616943 39.36340576 133.67939941 38.72266113 133.25 38.0625 C132.79391357 37.35794678 132.33782715 36.65339355 131.86791992 35.92749023 C128.95060242 31.42976438 125.98470402 26.9695317 122.92578125 22.56640625 C122 21 122 21 122 19 C118.90652489 21.89428051 116.64592699 24.85719291 114.390625 28.4375 C113.71773438 29.49839844 113.04484375 30.55929687 112.3515625 31.65234375 C111.65804687 32.75707031 110.96453125 33.86179687 110.25 35 C104.93949334 43.40998488 99.55112699 51.74699704 94 60 C93.34 60.99 92.68 61.98 92 63 C89.23371085 63.2667616 86.69380369 63.34804189 83.9296875 63.29296875 C83.13345978 63.28872391 82.33723206 63.28447906 81.51687622 63.28010559 C78.96924271 63.26328834 76.42239511 63.22563179 73.875 63.1875 C72.14975099 63.17245705 70.42448961 63.15876796 68.69921875 63.14648438 C64.46559816 63.11592407 60.23368055 63.0572119 56 63 C51.71 54.75 47.42 46.5 43 38 C34.09 37.67 25.18 37.34 16 37 C16 45.58 16 54.16 16 63 C10.72 63 5.44 63 0 63 C0 42.21 0 21.42 0 0 Z " fill="#222628" transform="translate(226,327)"/>
<path d="M0 0 C9.19875 -0.061875 18.3975 -0.12375 27.875 -0.1875 C30.75976074 -0.21481201 33.64452148 -0.24212402 36.61669922 -0.27026367 C38.92935773 -0.27903392 41.24202092 -0.28667658 43.5546875 -0.29296875 C44.73426025 -0.30831665 45.91383301 -0.32366455 47.12915039 -0.33947754 C63.12610332 -0.34449435 63.12610332 -0.34449435 68.68209839 4.45222473 C72.55953134 8.97535361 73.17605096 11.90802581 73.25 17.75 C73.27578125 18.96171875 73.3015625 20.1734375 73.328125 21.421875 C72.86143299 26.5110403 71.27220315 29.76127588 67.625 33.3125 C64.94605281 35.03468033 63.0926578 35.47766148 60 36 C60.39380859 36.74685059 60.78761719 37.49370117 61.19335938 38.26318359 C62.65025028 41.03084527 64.10346567 43.80039558 65.55419922 46.57128906 C66.18326087 47.77095542 66.81378877 48.96985409 67.44580078 50.16796875 C68.35312345 51.88860578 69.25477152 53.61223139 70.15625 55.3359375 C70.97319336 56.89127197 70.97319336 56.89127197 71.80664062 58.47802734 C73 61 73 61 73 63 C70.43297005 63.21718702 67.88429381 63.37465583 65.3125 63.5 C64.59126953 63.56703125 63.87003906 63.6340625 63.12695312 63.703125 C60.854973 63.78611971 59.16383617 63.71191989 57 63 C53.50698513 59.56009595 51.9694807 55.11501599 50.4921875 50.53515625 C48.82259155 45.63870905 47.22419717 41.22041773 43 38 C34.17448481 35.49132438 25.06081595 36.60605148 16 37 C16 45.58 16 54.16 16 63 C10.72 63 5.44 63 0 63 C0 42.21 0 21.42 0 0 Z " fill="#232628" transform="translate(551,327)"/>
<path d="M0 0 C9.19875 -0.061875 18.3975 -0.12375 27.875 -0.1875 C30.75976074 -0.21481201 33.64452148 -0.24212402 36.61669922 -0.27026367 C38.92935773 -0.27903392 41.24202092 -0.28667658 43.5546875 -0.29296875 C44.73426025 -0.30831665 45.91383301 -0.32366455 47.12915039 -0.33947754 C54.99034435 -0.34194289 63.51556435 -0.31021386 69.5 5.375 C73.30709621 12.03741837 74.27137056 18.58674253 72.5 26.12890625 C70.92577062 30.27020286 68.72778178 32.69232557 65 35 C63.3420691 35.37437149 61.67547508 35.71421662 60 36 C60.39380859 36.74685059 60.78761719 37.49370117 61.19335938 38.26318359 C62.65025028 41.03084527 64.10346567 43.80039558 65.55419922 46.57128906 C66.18326087 47.77095542 66.81378877 48.96985409 67.44580078 50.16796875 C68.35312345 51.88860578 69.25477152 53.61223139 70.15625 55.3359375 C70.97319336 56.89127197 70.97319336 56.89127197 71.80664062 58.47802734 C73 61 73 61 73 63 C67.39 63 61.78 63 56 63 C51.71 54.75 47.42 46.5 43 38 C34.09 37.67 25.18 37.34 16 37 C16 45.58 16 54.16 16 63 C10.72 63 5.44 63 0 63 C0 42.21 0 21.42 0 0 Z " fill="#222628" transform="translate(226,327)"/>
<path d="M0 0 C21.45 0 42.9 0 65 0 C65 4.29 65 8.58 65 13 C48.83 13 32.66 13 16 13 C16 16.3 16 19.6 16 23 C31.18 23 46.36 23 62 23 C62 27.29 62 31.58 62 36 C46.82 36 31.64 36 16 36 C16 40.62 16 45.24 16 50 C32.17 50 48.34 50 65 50 C65 54.29 65 58.58 65 63 C43.55 63 22.1 63 0 63 C0 42.21 0 21.42 0 0 Z " fill="#202426" transform="translate(482,327)"/>
<path d="M0 0 C21.12 0 42.24 0 64 0 C64 4.29 64 8.58 64 13 C47.83 13 31.66 13 15 13 C15 16.3 15 19.6 15 23 C30.51 23 46.02 23 62 23 C62 27.29 62 31.58 62 36 C46.49 36 30.98 36 15 36 C15 40.62 15 45.24 15 50 C31.17 50 47.34 50 64 50 C64 54.29 64 58.58 64 63 C42.88 63 21.76 63 0 63 C0 42.21 0 21.42 0 0 Z " fill="#202426" transform="translate(157,327)"/>
<path d="M0 0 C6.16488638 -1.77076524 12.00431542 -2.81367451 18 0 C24.80083884 6.6184564 29.40785291 15.39840246 34.05859375 23.59667969 C36.18152142 27.31821033 38.41586674 30.95160619 40.70507812 34.57226562 C41.54509545 35.9038768 42.37275622 37.24339458 43.18554688 38.59179688 C45.04016699 41.85110167 45.04016699 41.85110167 48 44 C48.26554687 43.27723877 48.53109375 42.55447754 48.8046875 41.80981445 C50.01144094 38.97310584 51.42251672 36.60931382 53.125 34.04296875 C53.7435083 33.10203369 54.3620166 32.16109863 54.99926758 31.19165039 C56.35180743 29.16077756 57.70853181 27.13268633 59.0690918 25.10717773 C62.15742333 20.47778007 65.13591018 15.93444116 67.58203125 10.9296875 C69.7162801 6.66900588 71.51303825 3.3175547 75 0 C80.91562157 -1.78677544 86.99890332 -0.9413485 93 0 C91.47079687 4.38547334 89.14252172 8.04509147 86.5546875 11.86328125 C85.89065666 12.85511665 85.89065666 12.85511665 85.21321106 13.86698914 C83.77144907 16.01841997 82.32329592 18.16546352 80.875 20.3125 C79.88081405 21.79331628 78.88708332 23.27443828 77.89379883 24.75585938 C75.89125523 27.74170064 73.88654935 30.72607248 71.88037109 33.70947266 C69.248799 37.62566817 66.63064156 41.55060798 64.01953125 45.48046875 C63.64449463 46.04470047 63.26945801 46.60893219 62.88305664 47.19026184 C61.14180643 49.81033008 59.40142549 52.43097343 57.66162109 55.05200195 C57.05527832 55.96296631 56.44893555 56.87393066 55.82421875 57.8125 C55.29916748 58.60269531 54.77411621 59.39289063 54.2331543 60.20703125 C53 62 53 62 52 63 C48.20746831 63.68209545 44.78364536 63.76009231 41 63 C37.86450819 60.59801052 36.04668845 57.57156239 34.00390625 54.2265625 C33.40424545 53.31482269 32.80458466 52.40308289 32.18675232 51.4637146 C30.27510952 48.53954275 28.41875165 45.58457073 26.5625 42.625 C25.32060817 40.70342961 24.07519369 38.78413105 22.82617188 36.8671875 C20.37398253 33.09387566 17.94443726 29.30746105 15.53173828 25.50878906 C11.64240578 19.40479294 7.61257314 13.39786913 3.52552795 7.42471313 C0 2.2148581 0 2.2148581 0 0 Z " fill="#232729" transform="translate(60,327)"/>
<path d="M0 0 C5.51757479 -0.02467609 11.03511761 -0.04284856 16.55273438 -0.05493164 C18.43066975 -0.05996763 20.3086012 -0.06679671 22.18652344 -0.07543945 C24.88217132 -0.08753713 27.57776747 -0.09323557 30.2734375 -0.09765625 C31.11619232 -0.10281754 31.95894714 -0.10797882 32.82723999 -0.11329651 C38.77225659 -0.11387171 38.77225659 -0.11387171 41 1 C41 3.97 41 6.94 41 10 C37.66844749 11.66577625 33.93463941 11.12007856 30.2734375 11.09765625 C28.97921371 11.09553383 28.97921371 11.09553383 27.65884399 11.09336853 C24.8975277 11.08776188 22.13629188 11.07520827 19.375 11.0625 C17.5052095 11.05748586 15.63541774 11.0529228 13.765625 11.04882812 C9.17705223 11.03779029 4.58853977 11.0205212 0 11 C0 7.37 0 3.74 0 0 Z " fill="#F3F3F3" transform="translate(567,340)"/>
<path d="M0 0 C5.51757479 -0.02467609 11.03511761 -0.04284856 16.55273438 -0.05493164 C18.43066975 -0.05996763 20.3086012 -0.06679671 22.18652344 -0.07543945 C24.88217132 -0.08753713 27.57776747 -0.09323557 30.2734375 -0.09765625 C31.11619232 -0.10281754 31.95894714 -0.10797882 32.82723999 -0.11329651 C38.77225659 -0.11387171 38.77225659 -0.11387171 41 1 C41 3.97 41 6.94 41 10 C37.66844749 11.66577625 33.93463941 11.12007856 30.2734375 11.09765625 C28.97921371 11.09553383 28.97921371 11.09553383 27.65884399 11.09336853 C24.8975277 11.08776188 22.13629188 11.07520827 19.375 11.0625 C17.5052095 11.05748586 15.63541774 11.0529228 13.765625 11.04882812 C9.17705223 11.03779029 4.58853977 11.0205212 0 11 C0 7.37 0 3.74 0 0 Z " fill="#F4F4F4" transform="translate(242,340)"/>
</svg>
